<svg xmlns="http://www.w3.org/2000/svg" width="58" height="48" viewBox="0 0 58 48">
  <path fill="#333" d="M200.6,222.6 C200.6,225.582338 198.182338,228 195.2,228 C192.217662,228 189.8,225.582338 189.8,222.6 C189.8,221.376362 190.206994,220.247783 190.892996,219.342248 L183.738302,184.133145 L175.400001,184.133145 C174.132131,184.133145 173.093909,183.563892 173.006026,182.360306 L173,182.192243 L173,181.940903 C173,180.679516 173.983097,180.055419 175.2286,180.003535 L175.400001,180 L185.652903,180 C186.735999,180 187.677131,180.720194 187.96436,181.74492 L188.004204,181.909188 L188.920804,186.367278 L228.199014,186.367278 C229.686008,186.367278 230.801417,187.693634 230.569377,189.129933 L230.539315,189.284188 L225.812014,209.977841 C225.576782,211.007737 224.692563,211.754311 223.647326,211.830045 L223.471713,211.836389 L194.157205,211.836389 L194.811706,215.020028 L221.653513,215.020028 C223.140506,215.020028 224.255915,216.346385 224.023875,217.782683 L223.993813,217.936938 L223.143426,219.482774 L222.4195,219.496304 C223.037272,220.374361 223.4,221.44482 223.4,222.6 C223.4,225.582338 220.982338,228 218,228 C215.017662,228 212.6,225.582338 212.6,222.6 C212.6,221.48985 212.935,220.457943 213.509426,219.599856 L199.690574,219.599856 C200.265,220.457943 200.6,221.48985 200.6,222.6 Z M218,220.224 C216.687771,220.224 215.624,221.287771 215.624,222.6 C215.624,223.912229 216.687771,224.976 218,224.976 C219.312229,224.976 220.376,223.912229 220.376,222.6 C220.376,221.287771 219.312229,220.224 218,220.224 Z M195.2,220.224 C193.887771,220.224 192.824,221.287771 192.824,222.6 C192.824,223.912229 193.887771,224.976 195.2,224.976 C196.512229,224.976 197.576,223.912229 197.576,222.6 C197.576,221.287771 196.512229,220.224 195.2,220.224 Z M225.319419,190.272971 L189.735598,190.272971 L193.178113,207.410827 L221.749389,207.410827 L225.319419,190.272971 Z" transform="translate(-173 -180)"/>
</svg>
