<svg xmlns="http://www.w3.org/2000/svg" width="18" height="18" viewBox="0 0 18 18">
  <path fill="#333" stroke="#333" stroke-linejoin="bevel" stroke-width=".5" d="M58.8125,45.75 L58.8125,45.0625 L48.5,45.0625 C47.9557292,45.0625 47.5833333,44.5755208 47.3828125,43.6015625 L47.3828125,43.6015625 L47.1679688,42.3125 L58.8125,40.25 L59.5,34.75 L45.5351562,33.375 C45.4205729,32.9739583 45.2486979,32.6731771 45.0195312,32.4726562 C44.6184896,32.1575521 43.9453125,32 43,32 L43,32 L43,32.6875 C43.8307292,32.6875 44.3606771,32.7877604 44.5898438,32.9882812 C44.7044271,33.1028646 44.8046875,33.3320312 44.890625,33.6757812 L44.890625,33.6757812 L46.7382812,43.7304688 C46.8242188,44.2747396 47.0104167,44.7473958 47.296875,45.1484375 C47.6119792,45.5494792 48.0130208,45.75 48.5,45.75 L48.5,45.75 L58.8125,45.75 Z M47.0390625,41.625 L45.6640625,34.0625 L58.7265625,35.3945312 L58.2539062,39.6484375 L47.0390625,41.625 Z M47.125,48.5 C47.4114583,48.5 47.6549479,48.3997396 47.8554688,48.1992188 C48.0559896,47.9986979 48.15625,47.7552083 48.15625,47.46875 C48.15625,47.1822917 48.0559896,46.9388021 47.8554688,46.7382812 C47.6549479,46.5377604 47.4114583,46.4375 47.125,46.4375 C46.8385417,46.4375 46.5950521,46.5377604 46.3945312,46.7382812 C46.1940104,46.9388021 46.09375,47.1822917 46.09375,47.46875 C46.09375,47.7552083 46.1940104,47.9986979 46.3945312,48.1992188 C46.5950521,48.3997396 46.8385417,48.5 47.125,48.5 Z M56.75,48.5 C57.0364583,48.5 57.2799479,48.3997396 57.4804688,48.1992188 C57.6809896,47.9986979 57.78125,47.7552083 57.78125,47.46875 C57.78125,47.1822917 57.6809896,46.9388021 57.4804688,46.7382812 C57.2799479,46.5377604 57.0364583,46.4375 56.75,46.4375 C56.4635417,46.4375 56.2200521,46.5377604 56.0195312,46.7382812 C55.8190104,46.9388021 55.71875,47.1822917 55.71875,47.46875 C55.71875,47.7552083 55.8190104,47.9986979 56.0195312,48.1992188 C56.2200521,48.3997396 56.4635417,48.5 56.75,48.5 Z M47.125,47.8125 C46.8958333,47.8125 46.78125,47.6979167 46.78125,47.46875 C46.78125,47.2395833 46.8958333,47.125 47.125,47.125 C47.3541667,47.125 47.46875,47.2395833 47.46875,47.46875 C47.46875,47.6979167 47.3541667,47.8125 47.125,47.8125 Z M56.75,47.8125 C56.5208333,47.8125 56.40625,47.6979167 56.40625,47.46875 C56.40625,47.2395833 56.5208333,47.125 56.75,47.125 C56.9791667,47.125 57.09375,47.2395833 57.09375,47.46875 C57.09375,47.6979167 56.9791667,47.8125 56.75,47.8125 Z" transform="translate(-42 -31)"/>
</svg>
