<svg xmlns="http://www.w3.org/2000/svg" width="184" height="184" viewBox="0 0 184 184">
  <g fill="none" fill-rule="evenodd" transform="translate(-26 -33)">
    <circle cx="118" cy="118" r="118"/>
    <path fill="#333" fill-rule="nonzero" d="M80.578,199.378 C82.216,199.378 83.854,198.076 84.862,195.682 C86.332,192.196 87.886,187.03 89.23,180.268 C89.398,179.47 89.65,178.84 90.28,178.21 C90.532,177.958 90.616,177.706 90.616,177.412 C90.616,176.992 90.364,176.614 90.112,176.32 C89.734,175.858 88.6,174.892 88.096,174.556 C87.718,174.304 87.382,174.22 87.172,174.22 C86.878,174.22 86.542,174.346 86.08,174.556 C85.618,174.808 85.156,174.934 84.61,174.976 C82.384,175.186 80.032,175.396 77.806,175.606 C78.142,174.472 78.352,173.59 78.688,172.456 C78.94,171.574 79.276,170.86 79.612,170.314 C79.864,169.894 79.948,169.558 79.948,169.264 C79.948,168.928 79.822,168.676 79.402,168.34 C78.478,167.584 76.42,166.66 75.622,166.66 C74.866,166.66 74.656,166.87 74.656,167.5 C74.866,168.088 74.95,168.634 74.95,169.348 C74.95,169.726 74.95,170.104 74.824,170.902 C74.614,172.204 74.194,174.01 73.648,175.942 C70.078,176.236 66.172,176.656 62.35,176.782 C61.804,176.824 61.72,176.908 61.72,177.286 C61.72,177.79 62.35,178.546 63.148,179.344 C63.82,180.016 64.156,180.058 64.618,180.058 C64.702,180.058 65.248,179.974 65.836,179.89 C67.6,179.638 69.826,179.26 72.724,178.966 C70.12,186.232 66.466,192.154 60.922,196.9 C60.46,197.32 60.292,197.488 60.292,197.782 C60.292,198.202 60.586,198.496 60.964,198.496 C61.384,198.496 61.594,198.412 61.846,198.286 C68.818,194.548 73.06,188.836 76.924,178.546 C79.948,178.21 82.678,177.958 85.66,177.706 C84.82,183.754 83.224,189.802 81.208,194.254 C81.082,194.506 80.914,194.632 80.662,194.632 C80.284,194.632 78.52,193.96 77.638,193.624 C77.176,193.456 77.008,193.414 76.84,193.414 C76.546,193.414 76.378,193.708 76.378,193.918 C76.378,194.086 76.462,194.296 76.63,194.548 C77.638,195.934 78.226,196.9 78.94,198.076 C79.276,199.252 79.654,199.378 80.578,199.378 Z M105.19,186.022 C106.156,185.896 106.954,185.77 107.752,185.728 C114.262,185.35 122.452,185.014 129.466,185.014 L131.146,185.014 C132.994,185.014 133.708,184.636 133.708,183.544 C133.708,182.368 132.364,180.94 129.172,180.73 C128.416,181.024 127.408,181.234 126.568,181.276 C121.36,181.528 115.438,181.738 109.684,181.906 C107.668,181.948 105.358,182.032 103.342,182.032 C102.586,182.032 102.46,182.116 102.46,182.536 C102.46,183.04 102.922,183.922 103.972,185.266 C104.56,185.98 104.812,186.022 105.19,186.022 Z M156.472,199.42 C157.69,199.42 158.278,198.538 158.278,196.522 C158.236,193.414 158.194,190.39 158.194,187.492 C158.194,185.434 158.236,183.376 158.236,181.402 C161.974,182.62 165.46,184.258 168.61,186.358 C170.08,187.324 170.794,187.576 171.214,187.576 C172.348,187.576 173.104,186.862 173.104,185.392 C173.104,184.384 172.18,183.166 170.08,182.158 C167.812,181.066 163.822,179.848 158.236,179.092 L158.278,174.052 C158.278,171.868 158.446,171.028 158.698,170.398 C158.908,169.852 158.992,169.516 158.992,169.054 C158.992,168.676 158.782,168.34 158.194,168.046 C157.186,167.5 155.212,166.786 154.372,166.786 C153.952,166.786 153.616,166.954 153.616,167.332 C153.616,167.542 153.658,167.752 153.784,168.046 C154.162,169.012 154.456,170.02 154.456,172.414 C154.456,179.05 154.414,185.56 154.414,191.482 C154.414,193.078 154.246,194.296 153.91,195.43 C154.246,198.076 155.254,199.42 156.472,199.42 Z"/>
    <g fill-rule="nonzero" transform="translate(54.734 49.343)">
      <path fill="#333" d="M43.2657084 77.6566524C36.6382914 77.6566524 31.2657084 83.253093 31.2657084 90.1566524 31.2657084 97.0602117 36.6382914 102.656652 43.2657084 102.656652 49.8931254 102.656652 55.2657084 97.0602117 55.2657084 90.1566524 55.2657084 83.253093 49.8931254 77.6566524 43.2657084 77.6566524zM43.2657084 85.9899857C45.4748474 85.9899857 47.2657084 87.8554659 47.2657084 90.1566524 47.2657084 92.4578388 45.4748474 94.323319 43.2657084 94.323319 41.0565694 94.323319 39.2657084 92.4578388 39.2657084 90.1566524 39.2657084 87.8554659 41.0565694 85.9899857 43.2657084 85.9899857zM79.2657084 77.6566524C72.6382914 77.6566524 67.2657084 83.253093 67.2657084 90.1566524 67.2657084 97.0602117 72.6382914 102.656652 79.2657084 102.656652 85.8931254 102.656652 91.2657084 97.0602117 91.2657084 90.1566524 91.2657084 83.253093 85.8931254 77.6566524 79.2657084 77.6566524zM79.2657084 85.9899857C81.4748474 85.9899857 83.2657084 87.8554659 83.2657084 90.1566524 83.2657084 92.4578388 81.4748474 94.323319 79.2657084 94.323319 77.0565694 94.323319 75.2657084 92.4578388 75.2657084 90.1566524 75.2657084 87.8554659 77.0565694 85.9899857 79.2657084 85.9899857zM101.208168 18.6566524L23.3232487 18.6566524C20.8120595 18.6566524 18.9041424 20.9563164 19.3237828 23.4773168L27.4367953 72.2164472C27.7674634 74.2029443 29.4574951 75.6566524 31.4362611 75.6566524L93.0951557 75.6566524C95.0739218 75.6566524 96.7639535 74.2029443 97.0946216 72.2164472L105.207634 23.4773168C105.627274 20.9563164 103.719357 18.6566524 101.208168 18.6566524zM96.4060761 26.9175219L89.6682192 67.3957828 34.8623863 67.3957828 28.1245295 26.9175219 96.4060761 26.9175219z"/>
      <polygon points="99.266 26.657 92.161 68.657 34.37 68.657 27.266 26.657"/>
      <path fill="#333" d="M19.3332865,0.656652366 C21.1765547,0.656652366 22.7797798,1.91202925 23.2528004,3.69891116 L23.2963022,3.87934423 L27.1697581,21.6656235 C27.6520867,23.880398 26.2687887,26.0714878 24.0800756,26.5595595 C21.9489602,27.0347873 19.8400351,25.7202269 19.2852716,23.6062256 L19.2437268,23.4330877 L16.0717849,8.8692148 L4.32381192,8.86950031 C2.14156295,8.86950031 0.361627288,7.12648208 0.269457716,4.94120449 L0.265708423,4.76307634 C0.265708423,2.55484298 1.98821648,0.753713351 4.14777981,0.660446302 L4.32381192,0.656652366 L19.3332865,0.656652366 Z"/>
    </g>
  </g>
</svg>
