<svg xmlns="http://www.w3.org/2000/svg" width="27" height="20" viewBox="0 0 27 20">
  <path fill="#BDA366" d="M178.034483,88.5 C178.034483,89.8807119 176.818704,91 175.318966,91 C173.819227,91 172.603448,89.8807119 172.603448,88.5 C172.603448,87.9372729 172.805398,87.4179703 173.146215,87.0001689 L173.121712,87 L169.860008,72.6699577 L166.086207,72.6699577 C165.529154,72.6699577 165.070052,72.4532016 165.007308,71.9956331 L165,71.8857546 L165,71.7842031 C165,71.2894441 165.419313,71.0373481 165.959531,71.0038587 L166.086207,71 L170.726529,71 C171.199524,71 171.612697,71.2709256 171.757896,71.6618976 L171.790696,71.7713893 L172.205536,73.5726375 L189.982312,73.5726375 C190.638339,73.5726375 191.134564,74.0818595 191.061893,74.6450645 L191.0415,74.7511869 L188.901989,83.1122588 C188.798977,83.5148933 188.42097,83.8103533 187.968036,83.8568006 L187.842801,83.8631876 L174.575459,83.8631876 L174.871677,85.1495063 L187.019909,85.1495063 C187.675935,85.1495063 188.17216,85.6587283 188.099489,86.2219333 L188.079096,86.3280557 L187.923282,86.5823017 C188.518207,87.0408973 188.896552,87.7297717 188.896552,88.5 C188.896552,89.8807119 187.680773,91 186.181034,91 C184.681296,91 183.465517,89.8807119 183.465517,88.5 C183.465517,87.9372729 183.667467,87.4179703 184.008284,87.0001689 L177.491716,87.0001689 C177.832533,87.4179703 178.034483,87.9372729 178.034483,88.5 Z M186.181034,87.4 C185.521149,87.4 184.986207,87.8924868 184.986207,88.5 C184.986207,89.1075132 185.521149,89.6 186.181034,89.6 C186.84092,89.6 187.375862,89.1075132 187.375862,88.5 C187.375862,87.8924868 186.84092,87.4 186.181034,87.4 Z M175.318966,87.4 C174.65908,87.4 174.124138,87.8924868 174.124138,88.5 C174.124138,89.1075132 174.65908,89.6 175.318966,89.6 C175.978851,89.6 176.513793,89.1075132 176.513793,88.5 C176.513793,87.8924868 175.978851,87.4 175.318966,87.4 Z M188.679047,75.1506955 L172.574301,75.1506955 L174.132336,82.0750816 L187.063301,82.0750816 L188.679047,75.1506955 Z" transform="translate(-165 -71)"/>
</svg>
