<svg xmlns="http://www.w3.org/2000/svg" width="252" height="236" viewBox="0 0 252 236">
  <g fill="none" fill-rule="evenodd">
    <circle cx="126" cy="118" r="118"/>
    <text fill="#333" font-family="YuKyo_Yoko-Bold, YuKyokasho Yoko" font-size="42" font-weight="bold">
      <tspan x="0" y="203">お買い物カゴ</tspan>
    </text>
    <g fill-rule="nonzero" transform="translate(62.734 49.343)">
      <path fill="#333" d="M43.2657084 77.6566524C36.6382914 77.6566524 31.2657084 83.253093 31.2657084 90.1566524 31.2657084 97.0602117 36.6382914 102.656652 43.2657084 102.656652 49.8931254 102.656652 55.2657084 97.0602117 55.2657084 90.1566524 55.2657084 83.253093 49.8931254 77.6566524 43.2657084 77.6566524zM43.2657084 85.9899857C45.4748474 85.9899857 47.2657084 87.8554659 47.2657084 90.1566524 47.2657084 92.4578388 45.4748474 94.323319 43.2657084 94.323319 41.0565694 94.323319 39.2657084 92.4578388 39.2657084 90.1566524 39.2657084 87.8554659 41.0565694 85.9899857 43.2657084 85.9899857zM79.2657084 77.6566524C72.6382914 77.6566524 67.2657084 83.253093 67.2657084 90.1566524 67.2657084 97.0602117 72.6382914 102.656652 79.2657084 102.656652 85.8931254 102.656652 91.2657084 97.0602117 91.2657084 90.1566524 91.2657084 83.253093 85.8931254 77.6566524 79.2657084 77.6566524zM79.2657084 85.9899857C81.4748474 85.9899857 83.2657084 87.8554659 83.2657084 90.1566524 83.2657084 92.4578388 81.4748474 94.323319 79.2657084 94.323319 77.0565694 94.323319 75.2657084 92.4578388 75.2657084 90.1566524 75.2657084 87.8554659 77.0565694 85.9899857 79.2657084 85.9899857zM101.208168 18.6566524L23.3232487 18.6566524C20.8120595 18.6566524 18.9041424 20.9563164 19.3237828 23.4773168L27.4367953 72.2164472C27.7674634 74.2029443 29.4574951 75.6566524 31.4362611 75.6566524L93.0951557 75.6566524C95.0739218 75.6566524 96.7639535 74.2029443 97.0946216 72.2164472L105.207634 23.4773168C105.627274 20.9563164 103.719357 18.6566524 101.208168 18.6566524zM96.4060761 26.9175219L89.6682192 67.3957828 34.8623863 67.3957828 28.1245295 26.9175219 96.4060761 26.9175219z"/>
      <polygon points="99.266 26.657 92.161 68.657 34.37 68.657 27.266 26.657"/>
      <path fill="#333" d="M19.3332865,0.656652366 C21.1765547,0.656652366 22.7797798,1.91202925 23.2528004,3.69891116 L23.2963022,3.87934423 L27.1697581,21.6656235 C27.6520867,23.880398 26.2687887,26.0714878 24.0800756,26.5595595 C21.9489602,27.0347873 19.8400351,25.7202269 19.2852716,23.6062256 L19.2437268,23.4330877 L16.0717849,8.8692148 L4.32381192,8.86950031 C2.14156295,8.86950031 0.361627288,7.12648208 0.269457716,4.94120449 L0.265708423,4.76307634 C0.265708423,2.55484298 1.98821648,0.753713351 4.14777981,0.660446302 L4.32381192,0.656652366 L19.3332865,0.656652366 Z"/>
    </g>
  </g>
</svg>
