<svg xmlns="http://www.w3.org/2000/svg" width="252" height="236" viewBox="0 0 252 236">
  <g fill="none" fill-rule="evenodd">
    <circle cx="126" cy="118" r="118"/>
    <path fill="#333" fill-rule="nonzero" d="M14.238,203.21 C15.456,203.21 16.968,201.698 16.968,199.136 L16.968,191.03 C20.874,188.888 23.814,187.88 26.796,187.88 C29.946,187.88 31.794,189.938 31.794,193.088 C31.794,196.616 29.106,199.556 22.386,200.312 C21.84,200.354 21.462,200.69 21.462,201.068 C21.462,201.656 21.882,201.95 24.234,201.95 C31.416,201.95 35.952,198.758 35.952,193.592 C35.952,188.72 32.172,185.696 26.166,185.696 C23.31,185.696 20.328,186.452 16.926,187.796 L17.094,181.664 C20.622,180.866 21.882,180.53 22.722,180.278 C24.36,179.816 24.906,179.438 24.906,178.64 C24.906,177.632 23.604,176.666 21.966,176.666 C21.378,176.666 21.084,176.792 20.622,177.17 C20.076,177.59 19.698,177.884 17.178,178.556 C17.22,177.254 17.304,176.372 17.43,175.532 C17.472,175.322 17.556,175.07 17.682,174.86 C17.934,174.524 18.06,174.188 18.06,173.768 C18.06,173.348 17.85,173.012 16.968,172.508 C16.086,172.004 14.742,171.5 13.692,171.5 C13.02,171.5 12.81,171.71 12.81,171.962 C12.81,172.172 12.936,172.592 13.146,172.928 C13.524,173.6 13.776,174.776 13.776,176.582 L13.776,179.354 C10.542,179.9 8.358,180.068 6.888,180.068 C6.3,180.068 6.174,180.152 6.174,180.446 C6.174,180.782 6.426,181.244 7.476,182.252 C8.148,182.84 8.358,182.882 8.862,182.882 C9.534,182.882 11.508,182.63 13.734,182.252 L13.734,189.182 C8.862,192.038 6.216,194.264 6.216,196.322 C6.216,197.414 6.594,197.792 8.274,198.632 C9.744,199.808 10.752,200.648 12.138,202.034 C12.936,202.832 13.44,203.21 14.238,203.21 Z M35.448,182.126 C36.666,182.126 37.338,181.118 37.338,179.984 C37.338,176.96 33.642,174.944 30.534,174.146 C29.862,173.978 29.4,173.978 29.106,173.978 C28.77,173.978 28.434,174.23 28.434,174.482 C28.434,174.692 28.518,174.902 28.854,175.196 C30.702,176.96 32.046,178.682 33.264,180.572 C34.062,181.79 34.44,182.126 35.448,182.126 Z M13.146,198.884 C12.81,198.884 12.054,198.716 11.088,198.212 C10.206,197.75 9.744,197.288 9.744,196.742 C9.744,195.86 11.424,194.264 13.734,192.71 L13.734,198.17 C13.734,198.674 13.524,198.884 13.146,198.884 Z M50.988,181.454 C51.66,181.454 52.206,181.034 52.332,180.362 C59.262,179.69 66.192,179.102 73.164,179.102 C73.29,179.648 73.92,180.194 74.886,180.194 C75.684,180.194 76.272,179.774 76.65,178.892 C77.364,177.212 77.7,176.456 78.204,175.28 C78.372,174.902 78.666,174.44 78.96,174.188 C79.338,173.852 79.548,173.516 79.548,173.096 C79.548,172.718 79.086,172.088 78.246,171.416 C77.364,170.744 76.482,170.24 75.6,169.946 C74.886,170.324 74.382,170.492 72.996,170.534 C65.436,170.828 58.044,171.29 50.148,171.878 C49.434,171.5 48.048,171.038 47.334,171.038 C46.914,171.038 46.62,171.206 46.62,171.542 C46.62,171.71 46.704,171.92 46.872,172.214 C47.25,172.844 47.544,173.474 47.964,175.28 L48.846,179.228 C49.224,180.824 49.728,181.454 50.988,181.454 Z M68.25,176.75 C68.628,175.532 68.922,174.44 69.216,173.264 C70.938,173.18 72.66,173.138 74.424,173.138 C74.298,173.978 74.13,174.986 73.71,176.54 C71.904,176.624 70.098,176.666 68.25,176.75 Z M59.976,177.212 C59.892,175.7 59.808,174.44 59.724,173.768 C61.446,173.642 64.764,173.432 65.646,173.39 C65.478,174.566 65.31,175.742 65.058,176.918 C62.79,177.044 61.32,177.128 59.976,177.212 Z M52.038,177.842 L51.534,174.482 C53.088,174.314 54.936,174.146 56.28,174.062 C56.574,175.154 56.784,176.288 56.952,177.464 C55.566,177.548 53.508,177.716 52.038,177.842 Z M45.948,205.436 C46.242,205.436 46.578,205.394 46.914,205.31 C50.358,204.68 55.608,202.664 58.17,200.984 C58.842,200.648 59.052,200.396 59.052,199.976 C59.052,199.598 58.632,199.178 58.044,198.674 C57.582,198.254 57.12,197.918 56.7,197.624 L56.784,197.54 C60.9,197.246 65.058,196.994 69.174,196.91 C69.594,197.876 70.476,198.632 71.106,198.632 C72.03,198.632 72.702,198.338 72.744,196.07 C72.7642222,195.16 72.7747078,193.44186 72.7801448,191.642221 L72.7823128,190.808477 C72.7838491,190.113278 72.7847453,189.422561 72.7852681,188.777667 L72.7859979,186.725447 C72.786,186.63037 72.786,186.539111 72.786,186.452 C72.786,185.36 72.912,184.982 73.29,184.52 C73.668,184.058 73.71,183.89 73.71,183.47 C73.71,183.134 73.5,182.672 72.534,181.874 C71.358,180.992 70.434,180.488 69.888,180.488 C69.216,180.824 68.46,181.034 67.704,181.076 C64.05,181.37 60.354,181.58 55.482,182.042 C54.516,181.706 53.676,181.538 53.298,181.538 C52.836,181.538 52.626,181.706 52.626,181.958 C52.626,182.168 52.668,182.378 52.92,182.882 C53.34,183.764 53.34,184.1 53.382,185.234 C53.4857647,187.551412 53.5040761,189.840339 53.5073076,191.584711 L53.5079744,192.297455 C53.508,192.410187 53.508,192.519765 53.508,192.626 C53.508,193.592 53.508,194.474 53.256,195.062 C53.424,196.532 54.096,197.54 54.852,197.96 C54.81,198.254 54.684,198.716 54.18,199.136 C52.458,200.648 49.224,202.706 45.78,204.176 C45.444,204.302 45.192,204.638 45.192,204.806 C45.192,205.226 45.36,205.436 45.948,205.436 Z M56.994,186.494 L56.994,184.436 C61.404,183.974 65.268,183.764 69.132,183.596 L69.132,185.864 C68.586,185.612 68.082,185.444 67.62,185.318 C67.032,185.612 66.78,185.696 66.024,185.738 C63.672,185.906 60.396,186.158 56.994,186.494 Z M57.036,190.652 L56.994,188.678 C61.194,188.174 65.31,187.88 66.948,187.88 L69.132,187.88 L69.132,190.064 C68.586,189.812 67.956,189.602 67.368,189.476 C66.99,189.728 66.444,189.854 65.562,189.938 C63.588,190.106 60.396,190.316 57.036,190.652 Z M57.036,195.02 L57.036,192.878 C61.32,192.374 65.016,192.122 67.2,192.122 C67.956,192.122 68.502,192.122 69.132,192.164 L69.132,194.306 C65.1,194.432 61.068,194.684 57.036,195.02 Z M75.306,205.772 C76.314,205.772 76.986,204.974 76.986,204.008 C76.986,203.168 76.734,202.538 75.978,201.782 C74.298,200.144 70.98,198.674 67.788,197.96 C67.368,197.876 66.696,197.75 66.318,197.75 C65.94,197.75 65.646,197.918 65.646,198.212 C65.646,198.422 65.772,198.632 66.108,198.842 C67.83,199.934 71.4,202.706 72.87,204.344 C73.542,205.058 74.508,205.772 75.306,205.772 Z M98.07,201.53 C99.54,201.53 99.834,200.648 99.834,198.59 C100.212,196.406 100.716,193.97 101.052,191.996 C101.052,191.534 100.842,191.324 100.506,191.324 C100.296,191.324 100.044,191.408 99.834,191.702 C98.784,193.172 97.482,194.852 96.432,195.944 C94.92,193.802 94.248,191.156 94.248,186.704 C94.248,183.848 94.374,182.504 94.752,180.824 C95.088,179.984 95.256,179.606 95.256,178.976 C95.256,178.178 94.626,177.38 93.156,176.414 C92.316,175.868 91.224,175.49 90.762,175.49 C90.384,175.49 90.09,175.574 90.09,175.868 C90.09,176.036 90.132,176.162 90.174,176.288 C90.636,177.464 90.804,178.598 90.804,180.446 C90.762,182 90.72,183.344 90.72,184.856 C90.72,188.048 91.014,191.408 92.022,194.6 C93.366,198.926 95.634,201.53 98.07,201.53 Z M119.07,196.112 C120.666,196.112 121.338,194.852 121.338,193.046 C121.338,189.938 120.498,187.082 118.818,184.436 C117.18,181.874 115.584,180.614 113.4,179.396 C112.98,179.186 112.434,178.976 112.098,178.976 C111.762,178.976 111.51,179.186 111.51,179.48 C111.51,179.732 111.594,179.9 111.846,180.152 C115.416,183.764 116.508,187.964 116.928,192.668 C117.18,195.356 117.852,196.112 119.07,196.112 Z M138.726,205.394 C139.776,205.394 140.196,204.596 140.196,202.79 L140.196,191.996 L140.238,187.376 C140.994,186.578 141.75,185.696 142.59,184.688 C142.758,184.478 142.842,184.268 142.842,184.1 C142.842,183.806 142.59,183.638 142.254,183.638 C142.086,183.638 141.918,183.68 141.75,183.806 L140.28,184.898 L140.322,180.74 C141.33,180.53 142.338,180.362 143.304,180.194 C144.228,180.026 144.774,179.732 144.774,179.06 C144.774,178.22 144.06,177.464 142.086,177.128 C141.582,177.422 141.036,177.632 140.322,177.842 L140.364,174.776 C140.364,173.936 140.616,172.97 140.826,172.508 C140.994,172.13 141.162,171.668 141.162,171.248 C141.162,170.912 140.868,170.576 140.07,170.114 C138.936,169.484 137.298,169.064 136.794,169.064 C136.416,169.064 136.206,169.19 136.206,169.442 C136.206,169.736 136.332,170.114 136.5,170.45 C136.752,171.08 136.92,172.046 136.92,173.558 L136.92,178.682 C136.038,178.892 135.114,179.102 134.232,179.312 C133.938,179.354 133.644,179.438 133.35,179.48 C133.77,178.808 134.148,178.136 134.442,177.506 C134.526,177.338 134.694,176.96 134.988,176.666 C135.24,176.414 135.324,176.162 135.324,175.826 C135.324,175.49 134.652,174.776 133.854,174.188 C133.056,173.516 132.09,172.928 131.67,172.928 C131.208,172.928 131.04,173.096 131.04,173.474 C131.04,173.768 131.124,174.02 131.208,174.272 C131.292,174.566 131.292,174.776 131.292,174.986 C131.292,175.154 131.292,175.364 131.25,175.532 C130.83,177.632 129.486,181.496 127.554,184.226 C127.428,184.436 127.386,184.604 127.386,184.772 C127.386,185.066 127.596,185.276 127.848,185.276 C128.016,185.276 128.184,185.192 128.394,185.066 C129.738,184.1 130.956,182.84 131.964,181.538 C132.762,182 133.35,182.21 133.812,182.21 C134.82,181.958 135.87,181.706 136.92,181.454 L136.878,187.124 C135.114,188.216 133.392,189.14 131.376,190.232 C130.578,190.652 129.654,190.988 129.108,190.988 L128.268,190.988 L128.268,190.988 C127.932,190.988 127.764,191.156 127.764,191.492 C127.764,192.122 128.646,193.172 129.99,194.222 C130.452,194.6 130.998,194.852 131.292,194.852 C131.628,194.852 131.922,194.726 132.216,194.39 C132.51,194.012 132.888,193.676 134.022,192.794 C135.03,191.996 135.996,191.24 136.878,190.526 C136.836,198.212 136.668,200.396 136.248,201.362 C136.458,203.588 137.55,205.394 138.726,205.394 Z M154.476,204.554 C155.022,204.554 156.072,203.924 156.786,203.126 C158.172,201.656 159.096,200.27 159.936,198.716 C162.036,194.852 163.59,190.106 164.556,184.646 C164.934,182.588 165.018,182.252 165.354,181.79 C165.69,181.328 165.732,181.034 165.732,180.74 C165.732,180.32 165.522,179.9 164.556,179.144 C162.582,177.632 162.162,177.464 161.28,177.296 C160.692,177.632 160.314,177.8 159.18,178.01 C156.576,178.514 152.838,179.06 148.722,179.648 C149.94,178.22 151.074,176.708 152.25,174.902 C152.418,174.608 152.67,174.272 153.048,173.726 C153.342,173.306 153.552,172.97 153.552,172.55 C153.552,172.13 153.258,171.5 152.25,170.828 C150.528,169.694 149.94,169.652 149.394,169.652 C148.974,169.652 148.806,169.862 148.806,170.198 C148.932,170.66 148.974,171.122 148.974,171.668 C148.974,172.298 148.764,172.97 148.47,173.81 C147.546,176.582 145.656,180.32 143.64,182.882 C143.43,183.134 143.388,183.344 143.388,183.512 C143.388,183.806 143.598,184.016 143.892,184.016 C144.102,184.016 144.354,183.932 144.606,183.722 C145.446,182.966 146.286,182.21 147.042,181.454 C147.672,182.21 147.966,182.378 148.344,182.378 L148.596,182.336 C148.47,182.714 148.344,183.134 148.092,183.554 C146.412,186.494 144.312,189.098 141.666,191.156 C141.12,191.576 141.078,191.786 141.078,191.996 C141.078,192.29 141.288,192.584 141.666,192.584 C142.002,192.584 142.674,192.248 143.178,191.954 C146.328,190.19 148.638,188.09 151.116,185.15 C151.83,184.184 151.998,183.806 151.998,183.344 C151.956,182.84 151.788,182.42 151.284,181.874 C152.46,181.706 153.678,181.496 154.854,181.286 C154.896,181.412 154.896,181.496 154.896,181.58 C154.896,181.832 154.854,182.042 154.77,182.378 C154.266,184.268 153.3,186.536 151.62,189.056 C148.932,193.046 146.832,195.272 143.514,198.086 C143.178,198.38 142.926,198.674 142.926,198.884 C142.926,199.178 143.094,199.472 143.514,199.472 C143.934,199.472 144.396,199.304 144.816,199.052 C147.336,197.624 150.402,195.314 152.796,192.542 C154.476,190.61 156.282,188.006 157.416,185.864 C158.07288,184.52168 158.283082,184.092138 158.429583,183.690561 L158.479268,183.548549 C158.527555,183.404816 158.57352,183.2516 158.634,183.05 C158.676,182.924 158.676,182.798 158.676,182.672 C158.676,182.126 158.382,181.622 157.626,180.866 C158.97,180.698 160.23,180.53 161.322,180.404 C160.734,188.384 157.878,195.86 154.77,199.85 C153.258,199.472 152.208,199.094 150.906,198.59 C150.78,198.548 150.654,198.506 150.57,198.506 C150.318,198.506 150.192,198.674 150.192,198.926 C150.192,199.052 150.234,199.22 150.318,199.43 C150.864,200.732 151.536,201.95 152.712,203.546 C153.3,204.344 153.93,204.554 154.476,204.554 Z M193.578,203.378 C195.216,203.378 196.854,202.076 197.862,199.682 C199.332,196.196 200.886,191.03 202.23,184.268 C202.398,183.47 202.65,182.84 203.28,182.21 C203.532,181.958 203.616,181.706 203.616,181.412 C203.616,180.992 203.364,180.614 203.112,180.32 C202.734,179.858 201.6,178.892 201.096,178.556 C200.718,178.304 200.382,178.22 200.172,178.22 C199.878,178.22 199.542,178.346 199.08,178.556 C198.618,178.808 198.156,178.934 197.61,178.976 C195.384,179.186 193.032,179.396 190.806,179.606 C191.142,178.472 191.352,177.59 191.688,176.456 C191.94,175.574 192.276,174.86 192.612,174.314 C192.864,173.894 192.948,173.558 192.948,173.264 C192.948,172.928 192.822,172.676 192.402,172.34 C191.478,171.584 189.42,170.66 188.622,170.66 C187.866,170.66 187.656,170.87 187.656,171.5 C187.866,172.088 187.95,172.634 187.95,173.348 C187.95,173.726 187.95,174.104 187.824,174.902 C187.614,176.204 187.194,178.01 186.648,179.942 C183.078,180.236 179.172,180.656 175.35,180.782 C174.804,180.824 174.72,180.908 174.72,181.286 C174.72,181.79 175.35,182.546 176.148,183.344 C176.82,184.016 177.156,184.058 177.618,184.058 C177.702,184.058 178.248,183.974 178.836,183.89 C180.6,183.638 182.826,183.26 185.724,182.966 C183.12,190.232 179.466,196.154 173.922,200.9 C173.46,201.32 173.292,201.488 173.292,201.782 C173.292,202.202 173.586,202.496 173.964,202.496 C174.384,202.496 174.594,202.412 174.846,202.286 C181.818,198.548 186.06,192.836 189.924,182.546 C192.948,182.21 195.678,181.958 198.66,181.706 C197.82,187.754 196.224,193.802 194.208,198.254 C194.082,198.506 193.914,198.632 193.662,198.632 C193.284,198.632 191.52,197.96 190.638,197.624 C190.176,197.456 190.008,197.414 189.84,197.414 C189.546,197.414 189.378,197.708 189.378,197.918 C189.378,198.086 189.462,198.296 189.63,198.548 C190.638,199.934 191.226,200.9 191.94,202.076 C192.276,203.252 192.654,203.378 193.578,203.378 Z M250.404,174.02 C251.202,174.02 251.706,173.474 251.706,172.592 C251.706,171.542 251.118,170.744 249.732,169.82 C248.346,168.896 246.624,168.476 245.616,168.476 C245.28,168.476 245.028,168.56 245.028,168.854 C245.028,168.98 245.112,169.106 245.406,169.358 C246.288,170.198 247.38,171.374 248.304,172.508 C249.186,173.6 249.648,174.02 250.404,174.02 Z M246.414,177.632 C247.212,177.632 247.758,177.128 247.758,176.246 C247.758,175.574 247.212,174.524 245.868,173.558 C244.356,172.424 242.55,171.794 241.542,171.794 C241.164,171.794 240.912,171.878 240.912,172.13 C240.912,172.256 240.996,172.382 241.248,172.634 C242.34,173.768 243.39,174.944 244.356,176.12 C245.238,177.17 245.658,177.632 246.414,177.632 Z M219.366,199.808 C226.044,199.136 233.478,198.716 239.442,198.716 C241.374,198.716 242.13,198.422 242.13,197.456 C242.13,196.616 241.71,196.028 240.618,195.524 C241.542,190.526 242.046,187.082 242.634,183.764 C242.844,182.42 243.138,181.748 243.474,181.412 C243.768,181.118 244.062,180.74 244.062,180.404 C244.062,179.942 243.894,179.438 243.222,178.808 C242.382,178.01 241.164,177.254 239.82,176.75 C238.938,177.212 238.518,177.548 236.586,177.674 C231.84,178.01 226.464,178.346 218.4,178.766 C217.98,178.808 217.518,178.892 217.518,179.186 C217.518,179.564 217.644,179.984 217.98,180.572 C218.694,181.832 219.198,182.294 219.744,182.378 C226.086,181.58 232.134,181.118 238.35,180.866 C237.93,185.192 237.258,190.904 236.628,195.44 C230.79,195.776 224.7,196.07 217.56,196.406 C217.14,196.406 216.972,196.49 216.972,196.7 C216.972,196.91 217.014,197.33 217.35,197.876 C218.148,199.094 218.904,199.808 219.366,199.808 Z"/>
    <g fill-rule="nonzero" transform="translate(62.734 49.343)">
      <path fill="#333" d="M43.2657084 77.6566524C36.6382914 77.6566524 31.2657084 83.253093 31.2657084 90.1566524 31.2657084 97.0602117 36.6382914 102.656652 43.2657084 102.656652 49.8931254 102.656652 55.2657084 97.0602117 55.2657084 90.1566524 55.2657084 83.253093 49.8931254 77.6566524 43.2657084 77.6566524zM43.2657084 85.9899857C45.4748474 85.9899857 47.2657084 87.8554659 47.2657084 90.1566524 47.2657084 92.4578388 45.4748474 94.323319 43.2657084 94.323319 41.0565694 94.323319 39.2657084 92.4578388 39.2657084 90.1566524 39.2657084 87.8554659 41.0565694 85.9899857 43.2657084 85.9899857zM79.2657084 77.6566524C72.6382914 77.6566524 67.2657084 83.253093 67.2657084 90.1566524 67.2657084 97.0602117 72.6382914 102.656652 79.2657084 102.656652 85.8931254 102.656652 91.2657084 97.0602117 91.2657084 90.1566524 91.2657084 83.253093 85.8931254 77.6566524 79.2657084 77.6566524zM79.2657084 85.9899857C81.4748474 85.9899857 83.2657084 87.8554659 83.2657084 90.1566524 83.2657084 92.4578388 81.4748474 94.323319 79.2657084 94.323319 77.0565694 94.323319 75.2657084 92.4578388 75.2657084 90.1566524 75.2657084 87.8554659 77.0565694 85.9899857 79.2657084 85.9899857zM101.208168 18.6566524L23.3232487 18.6566524C20.8120595 18.6566524 18.9041424 20.9563164 19.3237828 23.4773168L27.4367953 72.2164472C27.7674634 74.2029443 29.4574951 75.6566524 31.4362611 75.6566524L93.0951557 75.6566524C95.0739218 75.6566524 96.7639535 74.2029443 97.0946216 72.2164472L105.207634 23.4773168C105.627274 20.9563164 103.719357 18.6566524 101.208168 18.6566524zM96.4060761 26.9175219L89.6682192 67.3957828 34.8623863 67.3957828 28.1245295 26.9175219 96.4060761 26.9175219z"/>
      <polygon points="99.266 26.657 92.161 68.657 34.37 68.657 27.266 26.657"/>
      <path fill="#333" d="M19.3332865,0.656652366 C21.1765547,0.656652366 22.7797798,1.91202925 23.2528004,3.69891116 L23.2963022,3.87934423 L27.1697581,21.6656235 C27.6520867,23.880398 26.2687887,26.0714878 24.0800756,26.5595595 C21.9489602,27.0347873 19.8400351,25.7202269 19.2852716,23.6062256 L19.2437268,23.4330877 L16.0717849,8.8692148 L4.32381192,8.86950031 C2.14156295,8.86950031 0.361627288,7.12648208 0.269457716,4.94120449 L0.265708423,4.76307634 C0.265708423,2.55484298 1.98821648,0.753713351 4.14777981,0.660446302 L4.32381192,0.656652366 L19.3332865,0.656652366 Z"/>
    </g>
  </g>
</svg>
