<svg xmlns="http://www.w3.org/2000/svg" width="25" height="25" viewBox="0 0 25 25">
  <path fill="#FFF" d="M105,12.5760649 C105,5.62880325 99.4052419,0 92.5,0 C85.5947581,0 80,5.62880325 80,12.5760649 C80,18.8529412 84.5710685,24.0557809 90.546875,25 L90.546875,16.2114604 L87.3714718,16.2114604 L87.3714718,12.5760649 L90.546875,12.5760649 L90.546875,9.80527383 C90.546875,6.65365112 92.4117944,4.9127789 95.2681452,4.9127789 C96.6360887,4.9127789 98.0665323,5.15821501 98.0665323,5.15821501 L98.0665323,8.2515213 L96.4899194,8.2515213 C94.9375,8.2515213 94.453125,9.22109533 94.453125,10.2155172 L94.453125,12.5760649 L97.9198589,12.5760649 L97.3654234,16.2114604 L94.453125,16.2114604 L94.453125,25 C100.428931,24.0557809 105,18.8529412 105,12.5760649 Z" transform="translate(-80)"/>
</svg>
