<svg xmlns="http://www.w3.org/2000/svg" width="25" height="25" viewBox="0 0 25 25">
  <path fill="#FFF" d="M21,0 C23.209139,-4.05812251e-16 25,1.790861 25,4 L25,21 C25,23.209139 23.209139,25 21,25 L4,25 C1.790861,25 2.705415e-16,23.209139 0,21 L0,4 C-2.705415e-16,1.790861 1.790861,4.05812251e-16 4,0 L21,0 Z M18.5414189,15.8123515 C17.6991338,15.8123515 17.0144788,16.4954143 17.0144788,17.3376995 C17.0144788,18.1815771 17.6991338,18.86464 18.5414189,18.86464 C19.3837043,18.86464 20.0667673,18.1815771 20.0667673,17.3376995 C20.0667673,16.4954143 19.3837043,15.8123515 18.5414189,15.8123515 Z M8.91325598,6.81948464 L5.61258058,6.81948464 L5.61258058,18.8598632 L9.01356563,18.8598632 C10.381284,18.8598632 11.3668691,18.8136889 11.9703212,18.7213402 C12.575365,18.6258065 13.0785073,18.4665848 13.486116,18.2500426 C13.9765199,17.9952872 14.3809443,17.6004163 14.6468453,17.116381 C14.9175228,16.629161 15.054454,16.060738 15.054454,15.414296 C15.054454,14.5194676 14.8156207,13.8045603 14.3331775,13.2695739 C13.8539189,12.7314028 13.1851859,12.4320652 12.3317552,12.3683763 C13.0944293,12.1613877 13.6453378,11.8588654 13.9956268,11.4512567 C14.3443232,11.043648 14.5146909,10.5086617 14.5146909,9.82400625 C14.522652,9.32404891 14.401643,8.82886793 14.1644022,8.3878227 C13.9239766,7.97225299 13.5705037,7.62992527 13.1469726,7.4022375 C12.760063,7.19047215 12.2999108,7.03761889 11.7585554,6.94686236 C11.2187926,6.85769796 10.2698283,6.81948464 8.91325598,6.81948464 Z M9.86221957,14.0577233 C10.6567382,14.0577233 11.207647,14.1596254 11.4990236,14.3602455 C11.7903999,14.5624574 11.9448457,14.9111539 11.9448457,15.4206648 C11.9448457,15.9285836 11.7856232,16.1992614 11.4560336,16.3951043 L11.4624024,16.3903279 C11.1391814,16.586171 10.5882726,16.6817042 9.81445313,16.6817042 L8.66486902,16.6817042 L8.66486902,14.0577233 L9.86221957,14.0577233 Z M19.8661472,6.81948464 L17.2166907,6.81948464 L17.2166907,14.8490576 L19.8661472,14.8490576 L19.8661472,6.81948464 Z M9.36863111,9.48486318 C10.1854406,9.48486318 10.7331648,9.57721223 11.0118037,9.76031739 C11.2920347,9.94660761 11.430558,10.2650519 11.430558,10.7140582 C11.430558,11.164657 11.2761123,11.4560336 10.9799592,11.6375466 C10.6838062,11.8174679 10.1265285,11.9018555 9.3160879,11.9018555 L8.66486902,11.9018555 L8.66486902,9.48486318 L9.36863111,9.48486318 Z"/>
</svg>
