<svg xmlns="http://www.w3.org/2000/svg" width="25" height="25" viewBox="0 0 25 25">
  <path fill="#FFF" d="M15.1841469,9.60938031 L15.1841469,13.577007 C15.1841469,13.6774532 15.106022,13.7555781 15.0055758,13.7555781 L14.3694162,13.7555781 C14.3080324,13.7555781 14.2522289,13.722096 14.2243272,13.6830335 L12.4051341,11.2276809 L12.4051341,13.5825873 C12.4051341,13.6830335 12.3270092,13.7611584 12.226563,13.7611584 L11.5904035,13.7611584 C11.4899572,13.7611584 11.4118324,13.6830335 11.4118324,13.5825873 L11.4118324,9.61496066 C11.4118324,9.51451441 11.4899572,9.43638956 11.5904035,9.43638956 L12.2209827,9.43638956 C12.2767861,9.43638956 12.3381699,9.46429129 12.3660717,9.51451441 L14.1852648,11.969867 L14.1852648,9.61496066 C14.1852648,9.51451441 14.2633896,9.43638956 14.3638359,9.43638956 L14.9999954,9.43638956 C15.1004417,9.43080921 15.1841469,9.51451441 15.1841469,9.60938031 L15.1841469,9.60938031 Z M10.6082624,9.43080921 L9.97210286,9.43080921 C9.87165661,9.43080921 9.79353176,9.50893406 9.79353176,9.60938031 L9.79353176,13.577007 C9.79353176,13.6774532 9.87165661,13.7555781 9.97210286,13.7555781 L10.6082624,13.7555781 C10.7087086,13.7555781 10.7868335,13.6774532 10.7868335,13.577007 L10.7868335,9.60938031 C10.7868335,9.51451441 10.7087086,9.43080921 10.6082624,9.43080921 L10.6082624,9.43080921 Z M9.07366701,12.756696 L7.33817912,12.756696 L7.33817912,9.60938031 C7.33817912,9.50893406 7.26005427,9.43080921 7.15960802,9.43080921 L6.52344848,9.43080921 C6.42300223,9.43080921 6.34487738,9.50893406 6.34487738,9.60938031 L6.34487738,13.577007 C6.34487738,13.6272301 6.36161842,13.6662925 6.3951005,13.6997746 C6.42858258,13.7276763 6.46764501,13.7499977 6.51786813,13.7499977 L9.06808666,13.7499977 C9.1685329,13.7499977 9.24665776,13.6718728 9.24665776,13.5714266 L9.24665776,12.9352671 C9.24665776,12.8404012 9.1685329,12.756696 9.07366701,12.756696 Z M18.532355,9.43080921 L15.9821365,9.43080921 C15.8872706,9.43080921 15.8035654,9.50893406 15.8035654,9.60938031 L15.8035654,13.577007 C15.8035654,13.6718728 15.8816902,13.7555781 15.9821365,13.7555781 L18.532355,13.7555781 C18.6328012,13.7555781 18.7109261,13.6774532 18.7109261,13.577007 L18.7109261,12.9408474 C18.7109261,12.8404012 18.6328012,12.7622763 18.532355,12.7622763 L16.7968671,12.7622763 L16.7968671,12.0926347 L18.532355,12.0926347 C18.6328012,12.0926347 18.7109261,12.0145098 18.7109261,11.9140636 L18.7109261,11.2723237 C18.7109261,11.1718774 18.6328012,11.0937526 18.532355,11.0937526 L16.7968671,11.0937526 L16.7968671,10.424111 L18.532355,10.424111 C18.6328012,10.424111 18.7109261,10.3459861 18.7109261,10.2455399 L18.7109261,9.60938031 C18.7053457,9.51451441 18.6272209,9.43080921 18.532355,9.43080921 L18.532355,9.43080921 Z M24.9999885,4.55916637 L24.9999885,20.4798961 C24.9943967,22.9798915 22.9464094,25.0055574 20.4408336,24.9999885 L4.52010394,24.9999885 C2.02010853,24.9943967 -0.00555739019,22.940829 1.14546964e-05,20.4408336 L1.14546964e-05,4.52010394 C0.0056033036,2.02010853 2.05917096,-0.00555739019 4.55916637,1.14546964e-05 L20.4798961,1.14546964e-05 C22.9798915,0.0056033036 25.0055574,2.05359061 24.9999885,4.55916637 Z M21.5624834,11.4006717 C21.5624834,7.32701843 17.4776694,4.01229237 12.4609376,4.01229237 C7.44420571,4.01229237 3.35939179,7.32701843 3.35939179,11.4006717 C3.35939179,15.0502185 6.59599299,18.1082486 10.970985,18.6886047 C12.0368312,18.9173989 11.9140636,19.3080232 11.6741087,20.7421724 C11.6350462,20.9709666 11.4899572,21.6406082 12.4609376,21.2332429 C13.4319179,20.8258776 17.7008833,18.1473111 19.6149423,15.9486544 C20.9319042,14.4977642 21.5624834,13.030133 21.5624834,11.4006717 Z"/>
</svg>
