<svg xmlns="http://www.w3.org/2000/svg" width="18" height="19" viewBox="0 0 18 19">
  <path fill="#333" d="M97.875,51.125 C98.1914062,51.125 98.4580078,51.0166016 98.6748047,50.7998047 C98.8916016,50.5830078 99,50.3164062 99,50 L99,34.25 C99,33.9335938 98.8916016,33.6669922 98.6748047,33.4501953 C98.4580078,33.2333984 98.1914062,33.125 97.875,33.125 L87.75,33.125 C87.4453125,33.125 87.1816406,33.2333984 86.9589844,33.4501953 C86.7363281,33.6669922 86.625,33.9335938 86.625,34.25 L86.625,39.3125 L87.7675781,39.3125 L87.7675781,34.9355469 C87.7675781,34.7480469 87.8320312,34.5869141 87.9609375,34.4521484 C88.0898438,34.3173828 88.2480469,34.25 88.4355469,34.25 L97.171875,34.25 C97.359375,34.25 97.5205078,34.3173828 97.6552734,34.4521484 C97.7900391,34.5869141 97.8574219,34.7480469 97.8574219,34.9355469 L97.875,49.3144531 C97.875,49.5019531 97.8076172,49.6630859 97.6728516,49.7978516 C97.5380859,49.9326172 97.3769531,50 97.1894531,50 L88.4355469,50 C88.2480469,50 88.0898438,49.9326172 87.9609375,49.7978516 C87.8320312,49.6630859 87.7675781,49.5019531 87.7675781,49.3144531 L87.7675781,44.9199219 L86.625,44.9199219 L86.625,50 C86.625,50.3164062 86.7363281,50.5830078 86.9589844,50.7998047 C87.1816406,51.0166016 87.4453125,51.125 87.75,51.125 L97.875,51.125 Z M90.7558594,45.7109375 C90.8261719,45.7109375 90.8964844,45.6962891 90.9667969,45.6669922 C91.0371094,45.6376953 91.1015625,45.5996094 91.1601562,45.5527344 L94.4824219,42.1425781 L91.1601562,38.7324219 C91.0429688,38.6152344 90.9082031,38.5566406 90.7558594,38.5566406 C90.6035156,38.5566406 90.4746094,38.6152344 90.3691406,38.7324219 C90.2519531,38.8378906 90.1933594,38.9697266 90.1933594,39.1279297 C90.1933594,39.2861328 90.2519531,39.4179688 90.3691406,39.5234375 L92.390625,41.5625 L81.5625,41.5625 C81.4101562,41.5625 81.2783203,41.6152344 81.1669922,41.7207031 C81.0556641,41.8261719 81,41.9609375 81,42.125 C81,42.2773438 81.0556641,42.4091797 81.1669922,42.5205078 C81.2783203,42.6318359 81.4101562,42.6875 81.5625,42.6875 L92.4257812,42.6875 L90.3691406,44.7441406 C90.2519531,44.8613281 90.1933594,44.9960938 90.1933594,45.1484375 C90.1933594,45.3007812 90.2519531,45.4355469 90.3691406,45.5527344 C90.4160156,45.5996094 90.4746094,45.6376953 90.5449219,45.6669922 C90.6152344,45.6962891 90.6855469,45.7109375 90.7558594,45.7109375 Z" transform="translate(-81 -33)"/>
</svg>
