<svg xmlns="http://www.w3.org/2000/svg" width="78" height="73" viewBox="0 0 78 73">
  <g fill="none" fill-rule="evenodd">
    <polygon fill="#000" fill-rule="nonzero" points="69.804 14.794 39 .596 8.196 14.794 .522 46.976 21.94 72.682 56.06 72.682 77.478 46.976"/>
    <polygon fill="#FFF" fill-rule="nonzero" points="39 9.404 62.924 20.431 68.766 44.933 52.311 64.682 25.688 64.682 9.233 44.933 15.075 20.431"/>
    <polygon fill="#000" stroke="#000" points="50.774 14.145 25.198 65.291 53.33 65.291 69.657 45.003 63.56 20.646"/>
    <polygon fill="#000" fill-rule="nonzero" points="43.481 26.13 28.833 31.674 24.511 26.69 21 28 21 50 24.493 51.33 28.824 46.468 43.498 51.877 45.145 51.757 55.955 45.878 57 44.121 57 34.039 55.975 32.293 45.165 26.254"/>
    <polygon fill="#FFF" fill-rule="nonzero" points="26 7.72 13.353 .655 11.327 1.42 .823 22.429 13.349 27.045 26 20.165" transform="translate(32 25.145)"/>
  </g>
</svg>
