<svg xmlns="http://www.w3.org/2000/svg" width="20" height="16" viewBox="0 0 20 16">
  <path fill="#333" d="M368.964844,265.273438 C369.082031,265.273438 369.192708,265.253906 369.296875,265.214844 C369.401042,265.175781 369.492188,265.117188 369.570312,265.039062 C369.648438,264.947917 369.707031,264.853516 369.746094,264.755859 C369.785156,264.658203 369.804688,264.544271 369.804688,264.414062 C369.804688,264.296875 369.785156,264.186198 369.746094,264.082031 C369.707031,263.977865 369.648438,263.886719 369.570312,263.808594 C369.492188,263.730469 369.401042,263.671875 369.296875,263.632812 C369.192708,263.59375 369.082031,263.574219 368.964844,263.574219 L368.964844,263.574219 L351.132812,263.574219 C351.015625,263.574219 350.904948,263.59375 350.800781,263.632812 C350.696615,263.671875 350.605469,263.730469 350.527344,263.808594 C350.449219,263.886719 350.390625,263.977865 350.351562,264.082031 C350.3125,264.186198 350.292969,264.296875 350.292969,264.414062 C350.292969,264.544271 350.3125,264.658203 350.351562,264.755859 C350.390625,264.853516 350.449219,264.947917 350.527344,265.039062 C350.605469,265.117188 350.696615,265.175781 350.800781,265.214844 C350.904948,265.253906 351.015625,265.273438 351.132812,265.273438 L351.132812,265.273438 L368.964844,265.273438 Z M368.964844,272.050781 C369.082031,272.050781 369.192708,272.03125 369.296875,271.992188 C369.401042,271.953125 369.492188,271.894531 369.570312,271.816406 C369.648438,271.738281 369.707031,271.647135 369.746094,271.542969 C369.785156,271.438802 369.804688,271.328125 369.804688,271.210938 C369.804688,271.09375 369.785156,270.983073 369.746094,270.878906 C369.707031,270.77474 369.648438,270.683594 369.570312,270.605469 C369.492188,270.527344 369.401042,270.46875 369.296875,270.429688 C369.192708,270.390625 369.082031,270.371094 368.964844,270.371094 L368.964844,270.371094 L351.132812,270.371094 C351.015625,270.371094 350.904948,270.390625 350.800781,270.429688 C350.696615,270.46875 350.605469,270.527344 350.527344,270.605469 C350.449219,270.683594 350.390625,270.77474 350.351562,270.878906 C350.3125,270.983073 350.292969,271.09375 350.292969,271.210938 C350.292969,271.328125 350.3125,271.438802 350.351562,271.542969 C350.390625,271.647135 350.449219,271.738281 350.527344,271.816406 C350.605469,271.894531 350.696615,271.953125 350.800781,271.992188 C350.904948,272.03125 351.015625,272.050781 351.132812,272.050781 L351.132812,272.050781 L368.964844,272.050781 Z M368.964844,278.847656 C369.082031,278.847656 369.192708,278.828125 369.296875,278.789062 C369.401042,278.75 369.492188,278.691406 369.570312,278.613281 C369.648438,278.522135 369.707031,278.427734 369.746094,278.330078 C369.785156,278.232422 369.804688,278.11849 369.804688,277.988281 C369.804688,277.871094 369.785156,277.760417 369.746094,277.65625 C369.707031,277.552083 369.648438,277.460938 369.570312,277.382812 C369.492188,277.304688 369.401042,277.246094 369.296875,277.207031 C369.192708,277.167969 369.082031,277.148438 368.964844,277.148438 L368.964844,277.148438 L351.132812,277.148438 C351.015625,277.148438 350.904948,277.167969 350.800781,277.207031 C350.696615,277.246094 350.605469,277.304688 350.527344,277.382812 C350.449219,277.460938 350.390625,277.552083 350.351562,277.65625 C350.3125,277.760417 350.292969,277.871094 350.292969,277.988281 C350.292969,278.11849 350.3125,278.232422 350.351562,278.330078 C350.390625,278.427734 350.449219,278.522135 350.527344,278.613281 C350.605469,278.691406 350.696615,278.75 350.800781,278.789062 C350.904948,278.828125 351.015625,278.847656 351.132812,278.847656 L351.132812,278.847656 L368.964844,278.847656 Z" transform="translate(-350 -263)"/>
</svg>
