<svg xmlns="http://www.w3.org/2000/svg" width="59" height="48" viewBox="0 0 59 48">
  <g fill="none" fill-rule="evenodd">
    <rect width="49" height="31" x="1.5" y="1.5" stroke="#333" stroke-width="3" opacity=".827"/>
    <path fill="#333" fill-rule="nonzero" d="M20.816,12.776 C21.152,12.776 21.504,12.472 21.504,11.976 C21.504,11.608 21.232,11.32 20.768,11.08 C20.256,10.776 19.488,10.584 18.736,10.536 C18.464,10.536 18.304,10.6 18.304,10.712 C18.304,10.792 18.368,10.888 18.48,11 C18.864,11.4 19.392,11.896 19.808,12.296 C20.144,12.616 20.464,12.776 20.816,12.776 Z M14.768,13.368 C15.168,13.368 15.392,13.128 15.392,12.728 C15.392,12.312 15.072,11.816 14.56,11.496 C14.08,11.176 13.376,10.856 12.912,10.856 C12.752,10.856 12.672,10.92 12.672,11.048 C12.672,11.192 12.848,11.672 13.6,12.584 C14.064,13.144 14.352,13.368 14.768,13.368 Z M16.032,22.936 C18.176,22.648 20.368,22.472 22,22.472 C23.216,22.472 24.48,22.536 24.768,22.536 C25.136,22.536 25.504,22.44 25.504,22.056 C25.504,21.736 24.96,21.288 24,21.064 C23.552,21.192 23.232,21.24 22.832,21.256 C22.128,21.272 21.392,21.32 20.656,21.352 C20.672,20.36 20.704,19.368 20.736,18.36 C21.504,18.312 22.304,18.28 23.104,18.264 C23.76,18.248 24.016,18.168 24.016,17.848 C24.016,17.528 23.408,17.064 22.48,16.936 C22.08,17.096 21.664,17.208 21.2,17.24 L20.768,17.272 L20.8,16.456 C20.816,16.12 20.848,15.928 20.944,15.768 C21.008,15.656 21.04,15.576 21.04,15.464 C21.04,15.304 20.832,15.128 20.272,14.92 C21.328,14.84 22.352,14.76 23.376,14.728 C24,14.696 24.272,14.616 24.272,14.312 C24.272,13.928 23.808,13.592 22.752,13.352 C22.4,13.56 21.92,13.64 21.472,13.688 C19.936,13.848 18.448,14.024 16.208,14.216 C15.92,14.232 15.888,14.296 15.888,14.392 C15.888,14.504 15.968,14.616 16.24,14.936 C16.544,15.24 16.64,15.256 16.848,15.256 C17.648,15.176 18.416,15.096 19.152,15.016 C19.312,15.704 19.344,16.104 19.344,16.664 L19.344,17.416 C18.48,17.496 17.536,17.592 16.576,17.688 C16.288,17.72 16.256,17.768 16.256,17.864 C16.256,17.9501538 16.2938698,18.0268402 16.5443933,18.2834083 L16.721624,18.4604497 C16.7558817,18.4940592 16.7926154,18.5298462 16.832,18.568 C16.976,18.696 17.056,18.728 17.28,18.728 C17.936,18.632 18.624,18.552 19.328,18.488 L19.296,21.448 C17.936,21.544 16.544,21.656 15.168,21.768 C14.976,21.784 14.928,21.864 14.928,21.96 C14.928,22.072 15.104,22.28 15.456,22.664 C15.648,22.888 15.792,22.936 16.032,22.936 Z M13.456,16.504 C13.84,16.504 14.096,16.216 14.096,15.912 C14.096,15.416 13.712,14.984 13.168,14.728 C12.704,14.504 12.048,14.392 11.376,14.392 C11.216,14.392 11.136,14.44 11.136,14.568 C11.136,14.696 11.472,15.272 12.192,15.896 C12.64,16.28 13.152,16.504 13.456,16.504 Z M12.8,23.128 C13.088,23.128 13.168,23.048 13.456,22.536 C14.016,21.4 14.352,20.616 14.592,19.912 C14.672,19.704 14.72,19.432 14.72,19.368 C14.72,19.224 14.624,19.144 14.528,19.144 C14.416,19.144 14.304,19.208 14.224,19.32 C13.92,19.752 13.184,20.6 12.688,21.112 C12.544,21.256 12.416,21.288 12.352,21.288 C12.192,21.288 11.92,21.24 11.616,21.144 C11.52,21.144 11.424,21.224 11.424,21.32 C11.424,21.432 11.6,21.864 11.984,22.424 C12.272,22.84 12.544,23.128 12.8,23.128 Z M27.536,23.432 C27.712,23.432 28.224,23.32 29.04,23.016 C30.384,22.488 31.984,21.576 33.504,20.264 C33.776,20.024 34.048,19.768 34.288,19.496 C35.7446667,21.13 36.4592778,21.8715278 37.1621898,22.5700197 L37.384625,22.7901562 C37.4965,22.9005 37.61,23.012 37.728,23.128 C37.984,23.384 38.096,23.4 38.64,23.4 C39.44,23.4 40.8,23.304 41.12,23.224 C41.312,23.176 41.456,23.112 41.456,22.936 C41.456,22.824 41.344,22.68 41.136,22.584 C40.64,22.344 40.144,22.136 39.68,21.912 C39.024,21.592 38.32,21.192 37.808,20.824 C36.784,20.104 36.032,19.496 35.04,18.568 C35.552,17.896 35.984,17.176 36.384,16.376 C36.56,16.024 36.784,15.496 36.896,15.304 C37.008,15.128 37.104,14.936 37.104,14.76 C37.104,14.584 37.056,14.408 36.512,14.008 L39.68,13.928 C39.952,13.928 40.16,13.848 40.16,13.576 C40.16,13.096 39.184,12.584 38.416,12.488 C38.064,12.664 37.696,12.776 37.296,12.792 L34.72,12.952 L34.736,12.424 C34.752,11.896 34.864,11.624 34.992,11.368 C35.056,11.24 35.104,11.128 35.104,10.984 C35.104,10.744 34.768,10.552 34.432,10.424 C34.032,10.264 33.424,10.12 33.136,10.12 C32.976,10.12 32.896,10.168 32.896,10.28 C32.896,10.392 32.928,10.504 32.992,10.632 C33.152,11.032 33.232,11.384 33.248,12.456 L33.264,13.048 C31.632,13.176 29.776,13.336 27.952,13.528 C27.728,13.544 27.664,13.576 27.664,13.624 C27.664,13.72 27.76,13.944 28.176,14.472 C28.288,14.616 28.384,14.68 28.592,14.68 C29.008,14.632 29.472,14.568 29.952,14.52 C31.072,15.832 32.192,17.144 33.344,18.44 C33.12,18.712 32.88,18.984 32.624,19.256 C31.488,20.44 29.68,21.832 27.568,22.92 C27.344,23.032 27.264,23.096 27.264,23.224 C27.264,23.336 27.344,23.432 27.536,23.432 Z M34,17.544 C33.008,16.52 32.048,15.464 31.104,14.392 C32.512,14.28 33.92,14.152 35.328,14.072 C35.344,14.136 35.344,14.184 35.344,14.248 C35.344,14.472 35.312,14.712 35.248,14.904 C34.96,15.88 34.528,16.744 34,17.544 Z"/>
    <g transform="translate(35 22)">
      <path fill="#FFF" d="M19.4715909,24 L9.27272727,24 C8.66666667,24 8.18371212,23.7565104 7.82386364,23.2695312 L7.82386364,23.2695312 L2.36931818,15.9361979 C2.12310606,15.6115451 2,15.2439236 2,14.8333333 C2,14.3368056 2.17518939,13.9071181 2.52556818,13.5442708 C2.87594697,13.1814236 3.29734848,13 3.78977273,13 C4.41477273,13 4.92140152,13.2578125 5.30965909,13.7734375 L5.30965909,13.7734375 L7.45454545,16.6666667 L7.45454545,3.83333333 C7.45454545,3.32725694 7.63210227,2.89518229 7.98721591,2.53710937 C8.34232955,2.17903646 8.77083333,2 9.27272727,2 C9.78409091,2 10.2149621,2.18858507 10.5653409,2.56575521 C10.9157197,2.94292535 11.0909091,3.39409722 11.0909091,3.91927083 L11.0909091,3.91927083 L11.0909091,12.0833333 L11.5454545,12.0833333 L11.5454545,10.7083333 C11.5454545,10.2022569 11.7230114,9.77018229 12.078125,9.41210938 C12.4332386,9.05403646 12.8617424,8.875 13.3636364,8.875 C13.875,8.875 14.3058712,9.06358507 14.65625,9.44075521 C15.0066288,9.81792535 15.1818182,10.2690972 15.1818182,10.7942708 L15.1818182,10.7942708 L15.1818182,12.0833333 L15.6363636,12.0833333 L15.6363636,11.1666667 C15.6363636,10.7274306 15.7926136,10.3502604 16.1051136,10.0351562 C16.4176136,9.72005208 16.7916667,9.5625 17.2272727,9.5625 C17.6818182,9.5625 18.0606061,9.72243924 18.3636364,10.0423177 C18.6666667,10.3621962 18.8181818,10.7513021 18.8181818,11.2096354 L18.8181818,11.2096354 L18.8181818,12.0833333 L19.2727273,12.0833333 C19.2727273,11.7013889 19.405303,11.3767361 19.6704545,11.109375 C19.9356061,10.8420139 20.2575758,10.7083333 20.6363636,10.7083333 C21.0151515,10.7083333 21.3371212,10.8515625 21.6022727,11.1380208 C21.8674242,11.4244792 22,11.7634549 22,12.1549479 L22,12.1549479 L22,15.2630208 C22,16.1987847 21.8863636,17.125 21.6590909,18.0416667 L21.6590909,18.0416667 L20.3522727,23.3125 C20.3049242,23.5130208 20.1983902,23.6777344 20.0326705,23.8066406 C19.8669508,23.9355469 19.6799242,24 19.4715909,24 L19.4715909,24 Z"/>
      <path fill="#333" fill-rule="nonzero" d="M19.5865385,26 C20.2211538,26 20.7884615,25.8041295 21.2884615,25.4123884 C21.7884615,25.0206473 22.1153846,24.515253 22.2692308,23.8962054 L22.2692308,23.8962054 L23.5961538,18.5569196 C23.8653846,17.5026042 24,16.4144345 24,15.2924107 L24,15.2924107 L24,12.1439732 C24,11.234747 23.6875,10.453683 23.0625,9.80078125 C22.4375,9.14787946 21.6730769,8.82142857 20.7692308,8.82142857 C20.4903846,8.82142857 20.2211538,8.85528274 19.9615385,8.92299107 C19.2788462,8.08147321 18.3942308,7.66071429 17.3076923,7.66071429 C16.8076923,7.66071429 16.3317308,7.76227679 15.8798077,7.96540179 C15.1682692,7.29799107 14.3365385,6.96428571 13.3846154,6.96428571 C13.2884615,6.96428571 13.1346154,6.97395833 12.9230769,6.99330357 L12.9230769,6.99330357 L12.9230769,3.80133929 C12.9230769,2.76636905 12.5649038,1.87406994 11.8485577,1.12444196 C11.1322115,0.374813988 10.2596154,0 9.23076923,0 C8.21153846,0 7.34134615,0.362723214 6.62019231,1.08816964 C5.89903846,1.81361607 5.53846154,2.6889881 5.53846154,3.71428571 L5.53846154,3.71428571 L5.53846154,11.6506696 C4.97115385,11.312128 4.34615385,11.1428571 3.66346154,11.1428571 C2.65384615,11.1428571 1.79086538,11.5079985 1.07451923,12.2382812 C0.358173077,12.968564 0,13.8415179 0,14.8571429 C0,15.6889881 0.245192308,16.4337798 0.735576923,17.0915179 L0.735576923,17.0915179 L6.27403846,24.5200893 C6.62019231,24.9747024 7.05528846,25.3350074 7.57932692,25.6010045 C8.10336538,25.8670015 8.65384615,26 9.23076923,26 L9.23076923,26 L19.5865385,26 Z M19.5865385,24.1428571 L9.23076923,24.1428571 C8.61538462,24.1428571 8.125,23.8962054 7.75961538,23.4029018 L7.75961538,23.4029018 L2.22115385,15.9743304 C1.97115385,15.6454613 1.84615385,15.2730655 1.84615385,14.8571429 C1.84615385,14.3541667 2.02403846,13.9188988 2.37980769,13.5513393 C2.73557692,13.1837798 3.16346154,13 3.66346154,13 C4.29807692,13 4.8125,13.2611607 5.20673077,13.7834821 L5.20673077,13.7834821 L7.38461538,16.7142857 L7.38461538,3.71428571 C7.38461538,3.2016369 7.56490385,2.76395089 7.92548077,2.40122768 C8.28605769,2.03850446 8.72115385,1.85714286 9.23076923,1.85714286 C9.75,1.85714286 10.1875,2.04817708 10.5432692,2.43024554 C10.8990385,2.81231399 11.0769231,3.26934524 11.0769231,3.80133929 L11.0769231,3.80133929 L11.0769231,12.0714286 L11.5384615,12.0714286 L11.5384615,10.6785714 C11.5384615,10.1659226 11.71875,9.72823661 12.0793269,9.36551339 C12.4399038,9.00279018 12.875,8.82142857 13.3846154,8.82142857 C13.9038462,8.82142857 14.3413462,9.0124628 14.6971154,9.39453125 C15.0528846,9.7765997 15.2307692,10.233631 15.2307692,10.765625 L15.2307692,10.765625 L15.2307692,12.0714286 L15.6923077,12.0714286 L15.6923077,11.1428571 C15.6923077,10.6979167 15.8509615,10.3158482 16.1682692,9.99665179 C16.4855769,9.67745536 16.8653846,9.51785714 17.3076923,9.51785714 C17.7692308,9.51785714 18.1538462,9.67987351 18.4615385,10.0039062 C18.7692308,10.327939 18.9230769,10.7220982 18.9230769,11.1863839 L18.9230769,11.1863839 L18.9230769,12.0714286 L19.3846154,12.0714286 C19.3846154,11.6845238 19.5192308,11.3556548 19.7884615,11.0848214 C20.0576923,10.8139881 20.3846154,10.6785714 20.7692308,10.6785714 C21.1538462,10.6785714 21.4807692,10.8236607 21.75,11.1138393 C22.0192308,11.4040179 22.1538462,11.7473958 22.1538462,12.1439732 L22.1538462,12.1439732 L22.1538462,15.2924107 C22.1538462,16.2403274 22.0384615,17.1785714 21.8076923,18.1071429 L21.8076923,18.1071429 L20.4807692,23.4464286 C20.4326923,23.6495536 20.3245192,23.8164063 20.15625,23.9469866 C19.9879808,24.077567 19.7980769,24.1428571 19.5865385,24.1428571 L19.5865385,24.1428571 Z M11.0769231,20.4285714 L11.0769231,14.8571429 L10.6153846,14.8571429 L10.6153846,20.4285714 L11.0769231,20.4285714 Z M14.7692308,20.4285714 L14.7692308,14.8571429 L14.3076923,14.8571429 L14.3076923,20.4285714 L14.7692308,20.4285714 Z M18.4615385,20.4285714 L18.4615385,14.8571429 L18,14.8571429 L18,20.4285714 L18.4615385,20.4285714 Z"/>
    </g>
  </g>
</svg>
