<svg xmlns="http://www.w3.org/2000/svg" width="18" height="17" viewBox="0 0 18 17">
  <path fill-rule="evenodd" d="M60,63.8292683 C60,60.595122 62.9109167,57.9756098 66.5,57.9756098 C70.09125,57.9756098 73,60.595122 73,63.8292683 C73,67.0614634 70.09125,69.6829268 66.5,69.6829268 C62.9109167,69.6829268 60,67.0614634 60,63.8292683 L60,63.8292683 Z M77,72.5502439 L72.1812941,68.1112195 C73.2072941,66.9395122 73.8235294,65.4517073 73.8235294,63.8292683 C73.8235294,60.0565854 70.5062353,57 66.4117647,57 C62.3194118,57 59,60.0565854 59,63.8292683 C59,67.6 62.3194118,70.6585366 66.4117647,70.6585366 C68.1725882,70.6585366 69.7872941,70.0907317 71.0589412,69.1453659 L75.8765882,73.5853659 L77,72.5502439 Z" transform="translate(-59 -57)"/>
</svg>
