<svg xmlns="http://www.w3.org/2000/svg" width="60" height="48" viewBox="0 0 60 48">
  <path fill="#333" d="M15,48 C10.03125,48 6,43.96875 6,39 L4.5,39 C2.015625,39 0,36.984375 0,34.5 L0,34.5 L0,4.5 C0,2.015625 2.015625,0 4.5,0 L4.5,0 L34.5,0 C36.984375,0 39,2.015625 39,4.5 L39,4.5 L39,9 L43.134375,9 C44.325,9 45.46875,9.478125 46.3125,10.321875 L46.3125,10.321875 L55.678125,19.6875 C56.521875,20.53125 57,21.675 57,22.865625 L57,22.865625 L57,33 L58.5,33 C59.325,33 60,33.675 60,34.5 L60,34.5 L60,37.5 C60,38.325 59.325,39 58.5,39 L58.5,39 L54,39 C54,43.96875 49.96875,48 45,48 C40.03125,48 36,43.96875 36,39 L36,39 L24,39 L24,39 C24,43.96875 19.96875,48 15,48 Z M45,34.5 C42.515625,34.5 40.5,36.515625 40.5,39 C40.5,41.484375 42.515625,43.5 45,43.5 C47.484375,43.5 49.5,41.484375 49.5,39 C49.5,36.515625 47.484375,34.5 45,34.5 Z M15,34.5 C12.515625,34.5 10.5,36.515625 10.5,39 C10.5,41.484375 12.515625,43.5 15,43.5 C17.484375,43.5 19.5,41.484375 19.5,39 C19.5,36.515625 17.484375,34.5 15,34.5 Z M32.7205882,4 L6.27941176,4 C5.02052741,4 4,4.99862138 4,6.23048327 L4,31.7695167 C4,33.0013786 5.02052741,34 6.27941176,34 L7.5162689,34.0004291 C9.13119913,31.588581 11.8808808,30 15,30 C18.1191192,30 20.8688009,31.588581 22.4837311,34.0004291 L32.7205882,34 C33.9794726,34 35,33.0013786 35,31.7695167 L35,6.23048327 C35,4.99862138 33.9794726,4 32.7205882,4 Z M43.134375,13.5 L39,13.5 L39,24 L52.5,24 L52.5,22.865625 L43.134375,13.5 Z"/>
</svg>
