<svg xmlns="http://www.w3.org/2000/svg" width="25" height="25" viewBox="0 0 25 25">
  <path fill="#FFF" d="M62.3214286,0 L42.6785714,0 C41.1997768,0 40,1.19977679 40,2.67857143 L40,22.3214286 C40,23.8002232 41.1997768,25 42.6785714,25 L62.3214286,25 C63.8002232,25 65,23.8002232 65,22.3214286 L65,2.67857143 C65,1.19977679 63.8002232,0 62.3214286,0 Z M59.8057392,8.88451919 C59.816857,9.0399044 59.816857,9.20083908 59.816857,9.35622429 C59.816857,14.1676162 56.1479868,19.7115385 49.4439603,19.7115385 C47.3760517,19.7115385 45.4582332,19.1121955 43.8461538,18.0799938 C44.1407752,18.1132906 44.4242788,18.1243896 44.7244591,18.1243896 C46.4310397,18.1243896 47.9986478,17.5472445 49.249399,16.5705375 C47.6484375,16.5372407 46.3031851,15.4883905 45.8417969,14.0455279 C46.4032452,14.1287699 46.9091046,14.1287699 47.4872296,13.9789342 C45.8195613,13.6404164 44.5688101,12.1753559 44.5688101,10.4050744 L44.5688101,10.3606787 C45.0524339,10.6326028 45.6194411,10.7990869 46.2142428,10.8212848 C45.1985484,10.1468224 44.5890486,9.00907304 44.5910457,7.79127327 C44.5910457,7.11423772 44.7689303,6.4926969 45.0857873,5.95439814 C46.8813101,8.16308787 49.5773738,9.60595051 52.6014123,9.76133572 C52.0844351,7.29182082 53.9355469,5.28846154 56.1591046,5.28846154 C57.2097356,5.28846154 58.1547476,5.7268698 58.8218149,6.43720218 C59.6445312,6.28181697 60.4338942,5.97659603 61.1343149,5.56038565 C60.8619291,6.40390535 60.289363,7.11423772 59.5333534,7.56374493 C60.2671274,7.48605233 60.9786659,7.28072188 61.6346154,6.99769882 C61.1398738,7.72467961 60.5172776,8.36841833 59.8057392,8.88451919 L59.8057392,8.88451919 Z" transform="translate(-40)"/>
</svg>
